#Comment line ignore any data following # character 
#Hierarchical Translation and Rotation (.htr) file 
[Header]	
#Header keywords are followed by a single value 
FileType HTR		#Single word string
DataType HTRS		#Translation followed by rotation and scale data
FileVersion 1		#integer
NumSegments 25		#integer
NumFrames 5		#integer
DataFrameRate 30		#integer, data frame rate in this file
EulerRotationOrder ZYX
CalibrationUnits mm
RotationUnits Degrees
GlobalAxisofGravity Y
BoneLengthAxis Y
ScaleFactor 1.00
[SegmentNames&Hierarchy]
#CHILD	PARENT
BN_Tick_Root GLOBAL
BN_Torso BN_Tick_Root
BN_L_Leg_Front01 BN_Torso
BN_L_Leg_Rear01 BN_Torso
BN_MetalTop BN_Torso
BN_Neck BN_Torso
BN_R_Leg_Front01 BN_Torso
BN_R_Leg_Rear01 BN_Torso
BN_Sack BN_Torso
BN_L_Leg_Front02 BN_L_Leg_Front01
BN_L_Leg_Front03 BN_L_Leg_Front02
BN_L_Leg_Rear02 BN_L_Leg_Rear01
BN_L_Leg_Rear03 BN_L_Leg_Rear02
BN_Head BN_Neck
BN_Needle BN_Head
BN_R_Leg_Front02 BN_R_Leg_Front01
BN_R_Leg_Front03 BN_R_Leg_Front02
BN_R_Leg_Rear02 BN_R_Leg_Rear01
BN_R_Leg_Rear03 BN_R_Leg_Rear02
BN_SackDef01 BN_Sack
BN_SackDef02 BN_Sack
BN_SackDef03 BN_Sack
BN_SackDef04 BN_Sack
BN_SackDef05 BN_Sack
BN_SackDef06 BN_Sack
[BasePosition]
#SegmentName Tx, Ty, Tz, Rx, Ry, Rz, BoneLength
BN_Tick_Root 0.000000 0.000000 0.000000 -90.000000 0.000000 0.000000 10.000000 
BN_Torso 0.000000 0.000000 0.000000 0.000000 0.000000 0.000000 10.000000 
BN_L_Leg_Front01 0.000000 0.000000 0.000000 0.000000 0.000000 0.000000 10.000000 
BN_L_Leg_Rear01 0.000000 0.000000 0.000000 0.000000 0.000000 0.000000 10.000000 
BN_MetalTop 0.000000 0.000000 0.000000 0.000000 0.000000 0.000000 10.000000 
BN_Neck 0.000000 0.000000 0.000000 0.000000 0.000000 0.000000 10.000000 
BN_R_Leg_Front01 0.000000 0.000000 0.000000 0.000000 0.000000 0.000000 10.000000 
BN_R_Leg_Rear01 0.000000 0.000000 0.000000 0.000000 0.000000 0.000000 10.000000 
BN_Sack 0.000000 0.000000 0.000000 0.000000 0.000000 0.000000 10.000000 
BN_L_Leg_Front02 0.000000 0.000000 0.000000 0.000000 0.000000 0.000000 10.000000 
BN_L_Leg_Front03 0.000000 0.000000 0.000000 0.000000 0.000000 0.000000 10.000000 
BN_L_Leg_Rear02 0.000000 0.000000 0.000000 0.000000 0.000000 0.000000 10.000000 
BN_L_Leg_Rear03 0.000000 0.000000 0.000000 0.000000 0.000000 0.000000 10.000000 
BN_Head 0.000000 0.000000 0.000000 0.000000 0.000000 0.000000 10.000000 
BN_Needle 0.000000 0.000000 0.000000 0.000000 0.000000 0.000000 10.000000 
BN_R_Leg_Front02 0.000000 0.000000 0.000000 0.000000 0.000000 0.000000 10.000000 
BN_R_Leg_Front03 0.000000 0.000000 0.000000 0.000000 0.000000 0.000000 10.000000 
BN_R_Leg_Rear02 0.000000 0.000000 0.000000 0.000000 0.000000 0.000000 10.000000 
BN_R_Leg_Rear03 0.000000 0.000000 0.000000 0.000000 0.000000 0.000000 10.000000 
BN_SackDef01 0.000000 0.000000 0.000000 0.000000 0.000000 0.000000 10.000000 
BN_SackDef02 0.000000 0.000000 0.000000 0.000000 0.000000 0.000000 10.000000 
BN_SackDef03 0.000000 0.000000 0.000000 0.000000 0.000000 0.000000 10.000000 
BN_SackDef04 0.000000 0.000000 0.000000 0.000000 0.000000 0.000000 10.000000 
BN_SackDef05 0.000000 0.000000 0.000000 0.000000 0.000000 0.000000 10.000000 
BN_SackDef06 0.000000 0.000000 0.000000 0.000000 0.000000 0.000000 10.000000 
#Beginning of Data. Separated by tabs
#Fr	Tx	Ty	Tz	Rx	Ry	Rz	SF
[BN_Tick_Root]
110 -1094.280396 1054.864380 1264.203979 0.000000 -0.000000 89.255150 1976.967407
111 -1111.201904 1055.498413 1272.264526 0.000000 -0.000000 86.897430 1991.859253
112 -1131.417847 1055.827026 1277.520996 0.000000 -0.000000 84.539696 2006.722900
113 -1155.207031 1055.920288 1279.396362 0.000000 -0.000000 81.932877 2021.466309
114 -1232.187622 1045.944092 1224.417236 0.000000 -0.000000 79.324715 2027.679077
[BN_Torso]
110 -23.369785 -284.552185 320.917725 74.178497 -13.588517 -8.649571 429.539612
111 12.396783 -275.013763 273.803894 74.178017 -13.589118 -6.291484 388.271606
112 36.386215 -176.259399 209.974747 74.176819 -13.589624 -3.933216 276.551514
113 -0.004944 0.011366 178.400406 61.612583 -11.708863 1.447811 178.400421
114 -69.291634 164.745956 208.020432 31.970446 -7.616131 9.949280 274.253632
[BN_L_Leg_Front01]
110 -68.477791 10.734189 -26.804373 -51.406452 51.762657 -161.481461 74.316254
111 -68.477791 10.734189 -26.804373 -52.733253 51.707050 -165.821121 74.316254
112 -68.477791 10.734189 -26.804373 -52.614098 43.517212 -168.715439 74.316254
113 -68.477791 10.734189 -26.804373 -56.021267 33.243969 -165.858795 74.316254
114 -68.477791 10.734189 -26.804373 -60.434109 32.405838 -155.102051 74.316254
[BN_L_Leg_Rear01]
110 -72.133743 -73.994843 -18.268616 104.484451 49.127678 -126.217392 104.939293
111 -72.133743 -73.994843 -18.268616 104.559105 48.737381 -128.522736 104.939293
112 -72.133743 -73.994843 -18.268616 104.605812 39.515968 -128.484390 104.939293
113 -72.133743 -73.994843 -18.268616 102.058083 32.464600 -120.493225 104.939293
114 -72.133743 -73.994843 -18.268616 89.814354 36.126858 -109.379738 104.939293
[BN_MetalTop]
110 0.000008 13.737477 26.403606 89.998695 -20.049477 -90.000107 29.763546
111 0.000008 13.737477 26.403606 90.000458 -22.060207 -90.001839 29.763546
112 0.000008 13.737477 26.403606 90.002121 -23.429359 -90.000748 29.763546
113 0.000008 13.737477 26.403606 90.002975 -23.934576 -90.000175 29.763546
114 0.000008 13.737477 26.403606 90.002090 -20.458181 -90.003479 29.763546
[BN_Neck]
110 0.000014 95.233284 10.002091 -89.999733 -19.176125 89.998306 95.757088
111 0.000014 95.233284 10.002091 -90.001961 -14.215205 90.000519 95.757088
112 0.000014 95.233284 10.002091 -89.998413 -9.841919 89.996918 95.757088
113 0.000014 95.233284 10.002091 -89.999390 -6.350543 89.997841 95.757088
114 0.000014 95.233284 10.002091 -89.998520 -4.039460 89.996956 95.757088
[BN_R_Leg_Front01]
110 68.477768 10.734107 -26.804314 44.811802 53.782604 160.656281 74.316193
111 68.477768 10.734107 -26.804314 47.899044 51.711437 152.415421 74.316193
112 68.477768 10.734107 -26.804314 57.037643 42.789272 148.813766 74.316193
113 68.477768 10.734107 -26.804314 58.782383 29.791517 147.544785 74.316193
114 68.477768 10.734107 -26.804314 59.174171 55.014858 132.306610 74.316193
[BN_R_Leg_Rear01]
110 72.133751 -73.994873 -18.268644 -61.628681 42.946198 -106.199318 104.939331
111 72.133751 -73.994873 -18.268644 -61.166443 43.210533 -110.160866 104.939331
112 72.133751 -73.994873 -18.268644 -62.917149 33.588253 -111.619820 104.939331
113 72.133751 -73.994873 -18.268644 -67.479179 26.644247 -100.512238 104.939331
114 72.133751 -73.994873 -18.268644 -78.432442 40.936638 -83.337395 104.939331
[BN_Sack]
110 -0.000000 -78.024918 33.657791 89.999092 -21.299606 -89.997704 84.974907
111 -0.000000 -78.024918 33.657791 89.995377 -25.082432 -89.998161 84.974907
112 -0.000000 -78.024918 33.657791 90.000160 -25.979378 -89.998802 84.974907
113 -0.000000 -78.024918 33.657791 90.001625 -22.951180 -90.002998 84.974907
114 -0.000000 -78.024918 33.657791 90.001144 -13.379169 -89.999672 84.974907
[BN_L_Leg_Front02]
110 142.805023 -0.000015 -0.000104 0.203678 0.075378 -71.429451 142.805023
111 142.805023 -0.000015 -0.000104 0.179247 -0.132236 -50.610901 142.805023
112 142.805023 -0.000015 -0.000104 0.200941 0.020956 -66.275726 142.805023
113 142.805023 -0.000015 -0.000104 0.153217 0.406407 -103.330597 142.805023
114 142.805023 -0.000015 -0.000104 -0.326107 1.036193 -164.452850 142.805023
[BN_L_Leg_Front03]
110 124.143021 -0.000045 0.000007 0.354309 -0.430795 72.729355 124.143021
111 124.143021 -0.000045 0.000007 0.354027 -0.297548 41.804482 124.143021
112 124.143021 -0.000045 0.000007 0.352409 -0.406304 65.372421 124.143021
113 124.143021 -0.000045 0.000007 0.352375 -0.414660 112.162376 124.143021
114 124.143021 -0.000045 0.000007 0.353121 -0.192110 155.078644 124.143021
[BN_L_Leg_Rear02]
110 139.939041 0.000075 -0.000022 0.242571 0.002001 18.624983 139.939041
111 139.939041 0.000075 -0.000022 0.242572 0.001895 18.675131 139.939041
112 139.939041 0.000075 -0.000022 0.242579 0.000310 19.423044 139.939041
113 139.939041 0.000075 -0.000022 0.233713 -0.052868 33.386181 139.939041
114 139.939041 0.000075 -0.000022 0.217606 -0.099299 45.114006 139.939041
[BN_L_Leg_Rear03]
110 142.839615 0.000179 -0.000060 0.001660 0.001660 0.011550 142.839615
111 142.839615 0.000179 -0.000060 0.001660 0.001660 0.011550 142.839615
112 142.839615 0.000179 -0.000060 0.001660 0.001660 0.010348 142.839615
113 142.839615 0.000179 -0.000060 0.001302 0.001953 -22.639482 142.839615
114 142.839615 0.000179 -0.000060 0.000951 0.002146 -42.205952 142.839615
[BN_Head]
110 57.062447 -0.000030 0.000000 0.002177 0.000877 46.118999 57.062447
111 57.062447 -0.000030 0.000000 0.002213 0.000782 51.084587 57.062447
112 57.062447 -0.000030 0.000000 0.002241 0.000697 55.455750 57.062447
113 57.062447 -0.000030 0.000000 0.002262 0.000628 58.948322 57.062447
114 57.062447 -0.000030 0.000000 0.002274 0.000583 61.256607 57.062447
[BN_Needle]
110 33.915195 69.677574 -0.000038 0.000003 0.000030 87.896805 77.493256
111 33.915195 69.677574 -0.000038 0.000003 0.000030 87.896805 77.493256
112 33.915195 69.677574 -0.000037 0.000003 0.000030 87.896805 77.493256
113 33.915195 69.677574 -0.000036 0.000003 0.000030 87.896805 77.493256
114 33.915195 69.677574 -0.000036 0.000003 0.000030 87.896805 77.493256
[BN_R_Leg_Front02]
110 142.804947 -0.000060 0.000060 0.275027 1.009014 160.512299 142.804947
111 142.804947 -0.000060 0.000060 -0.052482 0.653653 126.196693 142.804947
112 142.804947 -0.000060 0.000060 -0.013333 0.708229 131.509415 142.804947
113 142.804947 -0.000060 0.000060 1.790634 0.757424 -120.305916 142.804947
114 142.804947 -0.000060 0.000060 178.973282 0.544781 -38.830498 142.804947
[BN_R_Leg_Front03]
110 124.143005 -0.000060 -0.000156 -0.351442 -0.202963 -153.299454 124.143005
111 124.143005 -0.000060 -0.000156 -0.352099 -0.328335 -132.806427 124.143005
112 124.143005 -0.000060 -0.000156 -0.354590 -0.307995 -136.704010 124.143005
113 124.143005 -0.000060 -0.000156 -0.354441 0.002271 179.671906 124.143005
114 124.143005 -0.000060 -0.000156 -0.354438 0.002261 179.673233 124.143005
[BN_R_Leg_Rear02]
110 139.939011 -0.000149 0.000015 -0.239308 -0.000572 -20.113085 139.939011
111 139.939011 -0.000149 0.000015 -0.213869 -0.099483 -45.890968 139.939011
112 139.939011 -0.000149 0.000015 -0.139498 -0.188329 -75.942863 139.939011
113 139.939011 -0.000149 0.000015 -0.106675 -0.234668 -89.142342 139.939011
114 139.939011 -0.000149 0.000015 -0.131663 -0.195539 -78.777473 139.939011
[BN_R_Leg_Rear03]
110 142.839417 0.000075 0.000119 0.001660 0.001660 -0.005964 142.839417
111 142.839417 0.000075 0.000119 0.002156 0.000927 43.473198 142.839417
112 142.839417 0.000075 0.000119 0.002347 0.000011 89.440445 142.839417
113 142.839417 0.000075 0.000119 0.002322 -0.000342 106.757248 142.839417
114 142.839417 0.000075 0.000119 0.002346 -0.000068 93.341682 142.839417
[BN_SackDef01]
110 249.782272 -3.760844 42.949425 -128.408218 -44.374973 -11.740845 253.475800
111 249.782272 -3.760844 42.949425 -128.408218 -44.374973 -11.740845 253.475800
112 249.782272 -3.760844 42.949425 -128.408218 -44.374973 -11.740845 253.475800
113 249.782272 -3.760844 42.949425 -128.408218 -44.374973 -11.740845 253.475800
114 249.782272 -3.760844 42.949425 -128.408218 -44.374973 -11.740845 253.475800
[BN_SackDef02]
110 138.789795 -62.131748 45.674385 32.077126 -27.375721 -88.781525 158.773758
111 138.789795 -62.131748 45.674385 32.077126 -27.375721 -88.781525 158.773758
112 138.789795 -62.131748 45.674385 32.077126 -27.375721 -88.781525 158.773758
113 138.789795 -62.131748 45.674385 32.077126 -27.375721 -88.781525 158.773758
114 138.789795 -62.131748 45.674385 32.077126 -27.375721 -88.781525 158.773758
[BN_SackDef03]
110 249.782272 -3.760785 -42.949661 18.144459 44.375008 -11.740894 253.475845
111 249.782272 -3.760785 -42.949661 18.144459 44.375008 -11.740894 253.475845
112 249.782272 -3.760785 -42.949661 18.144459 44.375008 -11.740894 253.475845
113 249.782272 -3.760785 -42.949661 18.144459 44.375008 -11.740894 253.475845
114 249.782272 -3.760785 -42.949661 18.144459 44.375008 -11.740894 253.475845
[BN_SackDef04]
110 138.789780 -62.131645 -45.674473 146.059982 27.375723 -88.781555 158.773743
111 138.789780 -62.131645 -45.674473 146.059982 27.375723 -88.781555 158.773743
112 138.789780 -62.131645 -45.674473 146.059982 27.375723 -88.781555 158.773743
113 138.789780 -62.131645 -45.674473 146.059982 27.375723 -88.781555 158.773743
114 138.789780 -62.131645 -45.674473 146.059982 27.375723 -88.781555 158.773743
[BN_SackDef05]
110 118.790161 46.167137 -63.831196 0.155741 51.314110 90.605110 142.537460
111 118.790161 46.167137 -63.831196 0.155741 51.314110 90.605110 142.537460
112 118.790161 46.167137 -63.831196 0.155741 51.314110 90.605110 142.537460
113 118.790161 46.167137 -63.831196 0.155741 51.314110 90.605110 142.537460
114 118.790161 46.167137 -63.831196 0.155741 51.314110 90.605110 142.537460
[BN_SackDef06]
110 118.790207 46.167194 63.831219 152.058487 -51.314072 90.605019 142.537537
111 118.790207 46.167194 63.831219 152.058487 -51.314072 90.605019 142.537537
112 118.790207 46.167194 63.831219 152.058487 -51.314072 90.605019 142.537537
113 118.790207 46.167194 63.831219 152.058487 -51.314072 90.605019 142.537537
114 118.790207 46.167194 63.831219 152.058487 -51.314072 90.605019 142.537537
